<svg fill="none" height="38" viewBox="0 0 104 38" width="104" xmlns="http://www.w3.org/2000/svg" xmlns:xlink="http://www.w3.org/1999/xlink"><linearGradient id="a"><stop offset="0" stop-color="#8b68c9"/><stop offset="1" stop-color="#622ac2"/></linearGradient><linearGradient id="b" gradientUnits="userSpaceOnUse" x1="79" x2="42.7472" xlink:href="#a" y1="13" y2="2.54348"/><linearGradient id="c" gradientUnits="userSpaceOnUse" x1="39" x2="-3.30947" xlink:href="#a" y1="38" y2="34.8688"/><linearGradient id="d" gradientUnits="userSpaceOnUse" x1="31" x2="24.4891" xlink:href="#a" y1="14" y2="13.5305"/><path d="m43 5.38769c0-.7664.6213-1.38769 1.3877-1.38769.7664 0 1.3877.62129 1.3877 1.38769v6.11041c0 .7664-.6213 1.3877-1.3877 1.3877-.7664 0-1.3877-.6213-1.3877-1.3877zm9.7119.50371c.944 0 1.7009.25387 2.2708.76163.5795.50776.869 1.27362.869 2.2976v2.60347c0 .7355-.5961 1.3317-1.3316 1.3317-.7354 0-1.3316-.5962-1.3316-1.3317v-2.20995c0-.93935-.4157-1.40903-1.2475-1.40903-.4578 0-.827.13541-1.1074.40621-.2709.27079-.4065.677-.4065 1.21861v1.99416c0 .7355-.5962 1.3317-1.3316 1.3317-.7354 0-1.3316-.5962-1.3316-1.3317v-4.27991c0-.7006.5679-1.26855 1.2685-1.26855h1.0417c.1253 0 .2269.10157.2269.22686 0 .19837.2448.30942.4119.20256.1993-.12743.4171-.23249.6534-.31517.4113-.15233.8598-.22849 1.3456-.22849zm7.7135 7.1086c-.6353 0-1.2615-.0635-1.8783-.1904-.2524-.0554-.4845-.1172-.6963-.1854-.4599-.1481-.6256-.6735-.4151-1.1083.2301-.4753.8166-.6562 1.3213-.5007.1084.0334.2207.0645.3368.0934.4766.11.9486.165 1.4157.165.43 0 .7335-.0381.9111-.1142.1869-.0847.2804-.2031.2804-.3555 0-.1523-.1122-.2581-.3364-.3173-.2149-.0677-.5607-.1312-1.0373-.1904-.6073-.0677-1.126-.1566-1.5559-.2666-.4205-.11-.7849-.31311-1.0933-.60929s-.4626-.71086-.4626-1.24401c0-.44006.1448-.82933.4345-1.16784.2898-.34696.7103-.61778 1.2616-.81241.5607-.2031 1.2289-.30465 2.0044-.30465.5513 0 1.0979.05077 1.64.15232.1839.03445.3575.07376.5209.11795.4809.13.6638.67224.4454 1.11989-.2232.45745-.7765.63435-1.2671.4987-.4224-.11679-.8641-.17518-1.3252-.17518-.4205 0-.7289.04655-.9251.13963-.1962.08463-.2944.19888-.2944.34274 0 .16079.1076.27504.3224.34273.2149.05925.5702.12272 1.0653.19041.6262.08464 1.1449.18194 1.5559.29196.4111.11002.7664.31313 1.0653.60931.3084.28774.4626.69394.4626 1.21864 0 .4316-.1448.8209-.4345 1.1678-.2898.3385-.7195.6051-1.2896.7997-.5607.1947-1.2381.292-2.0325.292zm10.0104-1.102c.1587.4066-.0088.8733-.4334.9744-.0383.0091-.0773.0178-.1171.026-.3178.0677-.6588.1016-1.0233.1016-.9906 0-1.7521-.22-2.2848-.6601-.5326-.44-.7989-1.0959-.7989-1.9675v-1.75667c0-.30578-.2479-.55367-.5537-.55367-.3058 0-.5537-.24789-.5537-.55368v-.69518c0-.30579.2479-.55368.5537-.55368.3058 0 .5537-.24789.5537-.55368v-.34124c0-.49425.4006-.89492.8949-.89492h.8734c.4942 0 .8949.40067.8949.89492v.02586c0 .47997.3891.86906.8691.86906.4799 0 .869.38909.869.86906v.06442c0 .47997-.3891.86906-.869.86906-.48 0-.8691.38909-.8691.86906v1.41588c0 .2454.0701.44.2103.5839.1493.1354.3456.2031.5887.2031.4437 0 .9615.1647 1.1228.5781zm4.6815-6.0066c1.2615 0 2.2241.26234 2.8875.78702.6636.51623.9952 1.3117.9952 2.38646v2.58032c0 .6852-.5554 1.2406-1.2405 1.2406h-1.0537c-.1032 0-.1868-.0837-.1868-.1868 0-.1915-.3071-.2935-.4596-.1778-.4203.3192-1.0147.4788-1.7832.4788-.5887 0-1.0979-.0931-1.5278-.2793-.4297-.1862-.7569-.4358-.9812-.7489-.2149-.3216-.3224-.6855-.3224-1.0917 0-.6516.2757-1.15514.827-1.51057.5515-.3639 1.4017-.54583 2.5511-.54583.8199 0 1.3698-.84443.5702-1.02591-.1932-.04385-.416-.06577-.6683-.06577-.3645 0-.7335.055-1.1074.16502-.0142.00386-.0283.00778-.0423.01176-.5161.14638-1.1373.00644-1.395-.46404-.2308-.42125-.0882-.95516.3632-1.11937.2327-.08467.4833-.1574.7517-.2182.6076-.14385 1.2149-.21579 1.8223-.21579zm-.0982 5.5853c.3084 0 .5796-.0677.813-.2031.2072-.12.3629-.2899.4671-.5096.0268-.0566.0376-.1191.0376-.1817 0-.2772-.2247-.5019-.5019-.5019h-.6475c-.7756 0-1.1635.2327-1.1635.6982 0 .2115.089.3808.2664.5077.1776.127.4205.1904.7288.1904z" fill="url(#b)"/><path d="m53.2049 31.8807c-.6219 0-1.1272-.5023-1.1308-1.1242-.0066-1.1239-1.4707-1.5511-2.0806-.6071l-.1821.2817c-.2155.3336-.5856.5351-.9828.5351-.3918 0-.7577-.1961-.9745-.5225l-.1907-.2869c-.6082-.9152-2.034-.4846-2.034.6142 0 .6129-.4969 1.1097-1.1098 1.1097h-.2049c-.7261 0-1.3147-.5886-1.3147-1.3147v-6.4404c0-.8409.6817-1.5226 1.5226-1.5226.5116 0 .989.2569 1.2708.6838l.495.7499c1.219 1.8467 3.9338 1.8314 5.1319-.029l.4562-.7084c.2795-.434.7604-.6963 1.2767-.6963.8368 0 1.5158.677 1.5184 1.5138l.02 6.4506c.0023.7247-.5846 1.3133-1.3093 1.3133zm3.5182-5.8186c0-.7539.6111-1.365 1.3649-1.365.7539 0 1.365.6111 1.365 1.365v4.4536c0 .7539-.6111 1.365-1.365 1.365-.7538 0-1.3649-.6111-1.3649-1.365zm1.3475-2.1437c-.4982 0-.9005-.1281-1.2069-.3843-.3065-.2562-.4676-.6306-.4676-1.0106s.1611-.883.4676-1.1391c.3064-.2562.7087-.3844 1.2069-.3844s.9005.1236 1.2069.3711c.3065.2386.4773.7724.4773 1.1524 0 .3976-.1708.7455-.4773 1.0106-.3064.2562-.7087.3843-1.2069.3843zm8.3723.6594c.9674 0 1.7432.2651 2.3276.7953.5938.5301.8908 1.3297.8908 2.3989v2.7437c0 .7539-.6111 1.365-1.3649 1.365-.7539 0-1.365-.6111-1.365-1.365v-2.3328c0-.9808-.4263-1.4712-1.2788-1.4712-.4694 0-.8477.1415-1.135.4241-.278.2827-.4167.7068-.4167 1.2724v2.1075c0 .7539-.6111 1.365-1.365 1.365-.7539 0-1.365-.6111-1.365-1.365v-4.5183c0-.7181.5822-1.3003 1.3003-1.3003h1.0657c.1296 0 .2347.1051.2347.2347 0 .2063.256.3211.4292.209.2023-.1309.4232-.2391.6627-.3244.4214-.159.8812-.2386 1.3794-.2386zm11.9008.1193c.7538 0 1.365.6111 1.365 1.365v4.5183c0 .7181-.5822 1.3003-1.3004 1.3003h-1.0768c-.1234 0-.2235-.1001-.2235-.2235 0-.1999-.2529-.3092-.4186-.1973-.1877.1266-.393.2316-.6159.3148-.4023.1501-.8284.2253-1.2788.2253-1.0057 0-1.8103-.274-2.4138-.8217-.5938-.5478-.8908-1.3695-.8908-2.4653v-2.6509c0-.7539.6111-1.365 1.3649-1.365.7539 0 1.365.6111 1.365 1.365v2.2401c0 .539.1103.9321.3305 1.1796.2205.2474.5413.3711.9627.3711.431 0 .7808-.1369 1.0488-.4109.278-.2827.4167-.7114.4167-1.2856v-2.0943c0-.7539.6111-1.365 1.365-1.365zm8.3623 6.1646c.1605.419-.0107.8985-.4466 1.0045-.04.0097-.0808.019-.1225.0278-.3257.0706-.6753.106-1.0489.106-1.0154 0-1.796-.2297-2.342-.6892s-.819-1.1442-.819-2.0544v-1.8446c0-.3135-.2541-.5676-.5675-.5676-.3134 0-.5675-.2541-.5675-.5675v-.747c0-.3134.2541-.5675.5675-.5675.3134 0 .5675-.2541.5675-.5675v-.3669c0-.5161.4184-.9344.9344-.9344h.8612c.5161 0 .9344.4183.9344.9344v.0436c0 .492.3988.8908.8908.8908.492 0 .8908.3988.8908.8908v.1004c0 .492-.3988.8908-.8908.8908-.492 0-.8908.3989-.8908.8909v1.4948c0 .2562.0718.4596.2155.6097.1531.1415.3543.2121.6035.2121.4532 0 .9842.1685 1.1463.5917zm9.2104-2.5595c0 .3519-.3156.6229-.6675.6229h-3.9262c-.5514 0-.9173.5698-.4495.8615.3352.1945.7518.2916 1.25.2916.3736 0 .6944-.0487.9627-.1458.0125-.0044.025-.0089.0374-.0135.4969-.1837 1.0811-.1901 1.4634.1767.424.4068.4376 1.0977-.081 1.3739-.6639.3537-1.4868.5305-2.4687.5305-.9101 0-1.7098-.159-2.3995-.4771-.6896-.3181-1.2262-.7599-1.6092-1.3254-.3736-.5656-.5604-1.2061-.5604-1.9218 0-.7068.1819-1.3387.546-1.8953.3736-.5656.8859-1.0073 1.5374-1.3254.6513-.3181 1.3841-.4772 2.1984-.4772.7758 0 1.4799.1502 2.1121.4507.6322.2915 1.1301.72 1.4943 1.2856.3735.5567.5603 1.2193.5603 1.9881zm-4.1524-1.9351c-.4216 0-.7758.1104-1.0632.3314-.4327.344-.0153.9012.5375.9012h1.0428c.5572 0 .9735-.5616.5318-.9012-.2779-.221-.6275-.3314-1.0489-.3314zm8.385 5.6329c-.6512 0-1.2928-.0663-1.925-.1988-.2603-.0582-.4994-.1232-.7175-.1948-.4717-.155-.6412-.6943-.4281-1.1427.2382-.5011.8564-.6918 1.3864-.528.1031.0318.2096.0617.3196.0895.4885.1149.972.1723 1.4516.1723.44 0 .751-.0398.933-.1193.192-.0884.288-.2121.288-.3711 0-.1591-.115-.2694-.345-.3314-.22-.0706-.575-.1368-1.063-.1988-.623-.0706-1.1546-.1634-1.5951-.2783-.4311-.115-.8046-.327-1.1207-.6362s-.4742-.7422-.4742-1.2989c0-.4595.1484-.8658.4454-1.2193.2968-.3622.7279-.6451 1.2932-.8483.5747-.212 1.2594-.3181 2.0544-.3181.565 0 1.126.053 1.681.1591.19.0361.368.0774.537.1238.494.1362.681.6936.46 1.156-.231.4824-.814.6685-1.33.5263-.425-.1173-.87-.1759-1.333-.1759-.431 0-.7476.0487-.9487.1458-.2012.0884-.3017.2077-.3017.3579 0 .1679.1099.2872.3304.3578.2203.0619.584.1282 1.092.1988.642.0884 1.173.1899 1.595.3049.421.1149.785.327 1.092.6361.316.3005.474.7247.474 1.2724 0 .4506-.149.8572-.445 1.2194-.297.3535-.738.6318-1.322.835-.575.2031-1.27.3048-2.084.3048z" fill="#050c07"/><path d="m33.8 0h-28.6c-2.87188 0-5.2 2.26842-5.2 5.06667v27.86663c0 2.7983 2.32812 5.0667 5.2 5.0667h28.6c2.8719 0 5.2-2.2684 5.2-5.0667v-27.86663c0-2.79825-2.3281-5.06667-5.2-5.06667z" fill="url(#c)"/><path clip-rule="evenodd" d="m25 8h-14.4444c-1.41143 0-2.5556 1.14417-2.5556 2.5556v17.8888c0 1.4115 1.14417 2.5556 2.5556 2.5556h17.8888c1.4115 0 2.5556-1.1441 2.5556-2.5556v-14.4444z" fill="#f4f5fa" fill-rule="evenodd"/><path d="m25 8 6 6h-5.7c-.1767 0-.3-.1251-.3-.3z" fill="url(#d)"/><path clip-rule="evenodd" d="m16.8422 12.7031c0-.4017-.3103-.7031-.7261-.7031-.4157 0-.729.3014-.729.7031l.003 13.5938c0 .4017.3103.7031.726.7031.4158 0 .7261-.3014.7261-.7031zm6.0503 1.4063c.4158 0 .7261.3515.7261.7031v9.1406c0 .4018-.3103.7031-.7261.7031-.4157 0-.726-.3013-.726-.7031v-9.1406c0-.4017.3103-.7031.726-.7031zm-3.3882 2.8906c.4157 0 .726.3014.726.7031v3.6099c0 .4018-.3103.7032-.726.7032-.4158 0-.7261-.3014-.7261-.7032v-3.6099c0-.4017.3103-.7031.7261-.7031zm-6.0504-.3125c0-.4017-.3103-.7031-.726-.7031-.4158 0-.7279.3014-.7279.7031v5.625c0 .4018.3121.7031.7279.7031.4157 0 .726-.3013.726-.7031zm12.8269.3125c.4158 0 .7192.2853.7192.687v3.626c0 .4018-.3034.687-.7192.687-.4157 0-.7261-.2852-.7261-.687v-3.6099c0-.4017.3104-.7031.7261-.7031z" fill="#f587bb" fill-rule="evenodd"/></svg>